<svg width="32" height="32" viewBox="0 0 32 32" fill="none" xmlns="http://www.w3.org/2000/svg">
<g clip-path="url(#clip0_144_49)">
<path d="M11.9998 25.3333C5.33317 27.3333 5.33317 22 2.6665 21.3333M21.3332 29.3333V24.1733C21.3832 23.5375 21.2973 22.8984 21.0812 22.2984C20.8651 21.6984 20.5237 21.1512 20.0798 20.6933C24.2665 20.2267 28.6665 18.64 28.6665 11.36C28.6662 9.49843 27.9501 7.70826 26.6665 6.36C27.2743 4.73134 27.2313 2.93113 26.5465 1.33333C26.5465 1.33333 24.9732 0.866665 21.3332 3.30666C18.2772 2.47843 15.0558 2.47843 11.9998 3.30666C8.35984 0.866665 6.7865 1.33333 6.7865 1.33333C6.10167 2.93113 6.0587 4.73134 6.6665 6.36C5.37334 7.71826 4.65653 9.52462 4.6665 11.4C4.6665 18.6267 9.0665 20.2133 13.2532 20.7333C12.8145 21.1866 12.4762 21.7272 12.2602 22.3199C12.0443 22.9126 11.9556 23.5441 11.9998 24.1733V29.3333" stroke="#1E1E1E" stroke-width="4" stroke-linecap="round" stroke-linejoin="round"/>
</g>
<defs>
<clipPath id="clip0_144_49">
<rect width="32" height="32" fill="white"/>
</clipPath>
</defs>
</svg>
